<mxfile host="app.diagrams.net" modified="2021-10-23T16:27:00.198Z" agent="5.0 (Windows NT 6.1; Win64; x64) AppleWebKit/537.36 (KHTML, like Gecko) Chrome/94.0.4606.81 Safari/537.36" etag="O_uPkBQKassjgWFUThxA" version="13.9.7" type="github">
  <diagram name="Page-1" id="74e2e168-ea6b-b213-b513-2b3c1d86103e">
    <mxGraphModel dx="1240" dy="607" grid="1" gridSize="10" guides="1" tooltips="1" connect="1" arrows="1" fold="1" page="1" pageScale="1" pageWidth="1100" pageHeight="850" background="none" math="0" shadow="0">
      <root>
        <mxCell id="0" />
        <mxCell id="1" parent="0" />
        <mxCell id="BkDH4ptXaObSnGoyTnDs-6" style="edgeStyle=orthogonalEdgeStyle;rounded=0;orthogonalLoop=1;jettySize=auto;html=1;exitX=0.5;exitY=1;exitDx=0;exitDy=0;" edge="1" parent="1" source="BkDH4ptXaObSnGoyTnDs-1" target="BkDH4ptXaObSnGoyTnDs-5">
          <mxGeometry relative="1" as="geometry" />
        </mxCell>
        <mxCell id="BkDH4ptXaObSnGoyTnDs-1" value="Start" style="rounded=1;whiteSpace=wrap;html=1;" vertex="1" parent="1">
          <mxGeometry x="390" y="40" width="120" height="60" as="geometry" />
        </mxCell>
        <mxCell id="BkDH4ptXaObSnGoyTnDs-9" style="edgeStyle=orthogonalEdgeStyle;rounded=0;orthogonalLoop=1;jettySize=auto;html=1;exitX=0.5;exitY=1;exitDx=0;exitDy=0;entryX=0.5;entryY=0;entryDx=0;entryDy=0;" edge="1" parent="1" source="BkDH4ptXaObSnGoyTnDs-5" target="BkDH4ptXaObSnGoyTnDs-7">
          <mxGeometry relative="1" as="geometry" />
        </mxCell>
        <mxCell id="BkDH4ptXaObSnGoyTnDs-5" value="Initialize Hardware" style="rounded=0;whiteSpace=wrap;html=1;" vertex="1" parent="1">
          <mxGeometry x="390" y="140" width="120" height="60" as="geometry" />
        </mxCell>
        <mxCell id="BkDH4ptXaObSnGoyTnDs-10" style="edgeStyle=orthogonalEdgeStyle;rounded=0;orthogonalLoop=1;jettySize=auto;html=1;exitX=0.5;exitY=1;exitDx=0;exitDy=0;entryX=0.5;entryY=0;entryDx=0;entryDy=0;" edge="1" parent="1" source="BkDH4ptXaObSnGoyTnDs-7" target="BkDH4ptXaObSnGoyTnDs-8">
          <mxGeometry relative="1" as="geometry" />
        </mxCell>
        <mxCell id="BkDH4ptXaObSnGoyTnDs-7" value="Initialize Software" style="rounded=0;whiteSpace=wrap;html=1;" vertex="1" parent="1">
          <mxGeometry x="390" y="220" width="120" height="50" as="geometry" />
        </mxCell>
        <mxCell id="BkDH4ptXaObSnGoyTnDs-12" style="edgeStyle=orthogonalEdgeStyle;rounded=0;orthogonalLoop=1;jettySize=auto;html=1;exitX=0.5;exitY=1;exitDx=0;exitDy=0;entryX=0.5;entryY=0;entryDx=0;entryDy=0;" edge="1" parent="1" source="BkDH4ptXaObSnGoyTnDs-8" target="BkDH4ptXaObSnGoyTnDs-11">
          <mxGeometry relative="1" as="geometry" />
        </mxCell>
        <mxCell id="BkDH4ptXaObSnGoyTnDs-8" value="Enable Interrupts" style="rounded=0;whiteSpace=wrap;html=1;" vertex="1" parent="1">
          <mxGeometry x="390" y="295" width="120" height="50" as="geometry" />
        </mxCell>
        <mxCell id="BkDH4ptXaObSnGoyTnDs-16" style="edgeStyle=orthogonalEdgeStyle;rounded=0;orthogonalLoop=1;jettySize=auto;html=1;exitX=0.5;exitY=1;exitDx=0;exitDy=0;" edge="1" parent="1" source="BkDH4ptXaObSnGoyTnDs-11" target="BkDH4ptXaObSnGoyTnDs-13">
          <mxGeometry relative="1" as="geometry" />
        </mxCell>
        <mxCell id="BkDH4ptXaObSnGoyTnDs-11" value="Mainloop" style="rounded=0;whiteSpace=wrap;html=1;" vertex="1" parent="1">
          <mxGeometry x="390" y="370" width="120" height="60" as="geometry" />
        </mxCell>
        <mxCell id="BkDH4ptXaObSnGoyTnDs-19" style="edgeStyle=orthogonalEdgeStyle;rounded=0;orthogonalLoop=1;jettySize=auto;html=1;exitX=0.5;exitY=1;exitDx=0;exitDy=0;entryX=0.5;entryY=0;entryDx=0;entryDy=0;" edge="1" parent="1" source="BkDH4ptXaObSnGoyTnDs-13" target="BkDH4ptXaObSnGoyTnDs-17">
          <mxGeometry relative="1" as="geometry" />
        </mxCell>
        <mxCell id="BkDH4ptXaObSnGoyTnDs-13" value="Update Software states" style="rounded=0;whiteSpace=wrap;html=1;" vertex="1" parent="1">
          <mxGeometry x="390" y="460" width="120" height="60" as="geometry" />
        </mxCell>
        <mxCell id="BkDH4ptXaObSnGoyTnDs-14" style="edgeStyle=orthogonalEdgeStyle;rounded=0;orthogonalLoop=1;jettySize=auto;html=1;exitX=0.5;exitY=1;exitDx=0;exitDy=0;" edge="1" parent="1" source="BkDH4ptXaObSnGoyTnDs-13" target="BkDH4ptXaObSnGoyTnDs-13">
          <mxGeometry relative="1" as="geometry" />
        </mxCell>
        <mxCell id="BkDH4ptXaObSnGoyTnDs-25" style="edgeStyle=orthogonalEdgeStyle;rounded=0;orthogonalLoop=1;jettySize=auto;html=1;exitX=0.5;exitY=1;exitDx=0;exitDy=0;entryX=0.5;entryY=0;entryDx=0;entryDy=0;" edge="1" parent="1" source="BkDH4ptXaObSnGoyTnDs-17" target="BkDH4ptXaObSnGoyTnDs-20">
          <mxGeometry relative="1" as="geometry" />
        </mxCell>
        <mxCell id="BkDH4ptXaObSnGoyTnDs-17" value="Set LCD to 0,0" style="rounded=0;whiteSpace=wrap;html=1;" vertex="1" parent="1">
          <mxGeometry x="390" y="540" width="120" height="60" as="geometry" />
        </mxCell>
        <mxCell id="BkDH4ptXaObSnGoyTnDs-27" style="edgeStyle=orthogonalEdgeStyle;rounded=0;orthogonalLoop=1;jettySize=auto;html=1;exitX=1;exitY=0.5;exitDx=0;exitDy=0;entryX=1;entryY=0.25;entryDx=0;entryDy=0;" edge="1" parent="1" source="BkDH4ptXaObSnGoyTnDs-20" target="BkDH4ptXaObSnGoyTnDs-11">
          <mxGeometry relative="1" as="geometry">
            <mxPoint x="580" y="670" as="targetPoint" />
            <Array as="points">
              <mxPoint x="580" y="670" />
              <mxPoint x="580" y="385" />
            </Array>
          </mxGeometry>
        </mxCell>
        <mxCell id="BkDH4ptXaObSnGoyTnDs-28" style="edgeStyle=orthogonalEdgeStyle;rounded=0;orthogonalLoop=1;jettySize=auto;html=1;exitX=0.5;exitY=1;exitDx=0;exitDy=0;" edge="1" parent="1" source="BkDH4ptXaObSnGoyTnDs-20">
          <mxGeometry relative="1" as="geometry">
            <mxPoint x="450" y="770" as="targetPoint" />
          </mxGeometry>
        </mxCell>
        <mxCell id="BkDH4ptXaObSnGoyTnDs-20" value="if valid State" style="rhombus;whiteSpace=wrap;html=1;" vertex="1" parent="1">
          <mxGeometry x="410" y="630" width="80" height="80" as="geometry" />
        </mxCell>
        <mxCell id="BkDH4ptXaObSnGoyTnDs-29" value="NO" style="text;html=1;align=center;verticalAlign=middle;resizable=0;points=[];autosize=1;" vertex="1" parent="1">
          <mxGeometry x="515" y="650" width="30" height="20" as="geometry" />
        </mxCell>
        <mxCell id="BkDH4ptXaObSnGoyTnDs-30" value="YES" style="text;html=1;align=center;verticalAlign=middle;resizable=0;points=[];autosize=1;" vertex="1" parent="1">
          <mxGeometry x="450" y="730" width="40" height="20" as="geometry" />
        </mxCell>
        <mxCell id="BkDH4ptXaObSnGoyTnDs-31" value="Execute State" style="rounded=0;whiteSpace=wrap;html=1;" vertex="1" parent="1">
          <mxGeometry x="390" y="770" width="120" height="60" as="geometry" />
        </mxCell>
      </root>
    </mxGraphModel>
  </diagram>
</mxfile>
